<svg xmlns="http://www.w3.org/2000/svg" width="2306" height="723" viewBox="0 0 2306 723">
<defs>
<style>text{font-family:Arial,Helvetica,sans-serif}.label{font-size:10px;font-weight:700;paint-order:stroke;stroke:#fff;stroke-width:2px}.legend{font-size:11px}.title{font-size:14px;font-weight:700}.panel{font-size:13px;font-weight:700}</style>
</defs>
<rect x="0" y="0" width="100%" height="100%" fill="#ffffff"/>
<text class="panel" x="0" y="14">Input CubiCasa5K floorplan</text>
<text class="panel" x="1165" y="14">Latest model_v13/v14 visual overlay</text>
<image href="input_aligned_from_svg.png" x="0" y="22" width="1141" height="659" preserveAspectRatio="none"/>
<g transform="translate(1165,22)">
<image href="input_aligned_from_svg.png" x="0" y="0" width="1141" height="659" preserveAspectRatio="none"/>
<rect x="0" y="0" width="100%" height="100%" fill="#ffffff" opacity="0.08"/>
<g class="boxes">
<rect x="945.67" y="311.42" width="104.06" height="332.20" fill="#2ca02c" fill-opacity="0.12" stroke="#d62728" stroke-width="2.2" stroke-dasharray="5 3"/>
<rect x="63.76" y="59.35" width="272.27" height="226.45" fill="#2ca02c" fill-opacity="0.12" stroke="#2ca02c" stroke-width="1.8"/>
<rect x="336.03" y="59.35" width="217.62" height="235.46" fill="#2ca02c" fill-opacity="0.12" stroke="#d62728" stroke-width="2.2" stroke-dasharray="5 3"/>
<rect x="63.76" y="294.81" width="482.13" height="210.54" fill="#2ca02c" fill-opacity="0.12" stroke="#d62728" stroke-width="2.2" stroke-dasharray="5 3"/>
<rect x="553.66" y="59.35" width="372.45" height="342.88" fill="#2ca02c" fill-opacity="0.12" stroke="#d62728" stroke-width="2.2" stroke-dasharray="5 3"/>
<rect x="553.66" y="411.24" width="360.67" height="227.74" fill="#2ca02c" fill-opacity="0.12" stroke="#d62728" stroke-width="2.2" stroke-dasharray="5 3"/>
<rect x="227.34" y="457.09" width="174.28" height="184.89" fill="#2ca02c" fill-opacity="0.12" stroke="#2ca02c" stroke-width="1.8"/>
<rect x="410.25" y="515.36" width="135.64" height="126.62" fill="#2ca02c" fill-opacity="0.12" stroke="#d62728" stroke-width="2.2" stroke-dasharray="5 3"/>
<rect x="352.85" y="623.22" width="31.20" height="16.77" fill="#2ca02c" fill-opacity="0.12" stroke="#d62728" stroke-width="2.2" stroke-dasharray="5 3"/>
<rect x="351.97" y="574.69" width="32.89" height="48.53" fill="#2ca02c" fill-opacity="0.12" stroke="#d62728" stroke-width="2.2" stroke-dasharray="5 3"/>
<rect x="365.97" y="630.19" width="4.96" height="2.83" fill="#2ca02c" fill-opacity="0.12" stroke="#d62728" stroke-width="2.2" stroke-dasharray="5 3"/>
<rect x="49.08" y="18.31" width="900.65" height="41.04" fill="#1f77b4" fill-opacity="0.07" stroke="#1f77b4" stroke-width="1.9"/>
<rect x="914.33" y="18.31" width="35.40" height="293.11" fill="#1f77b4" fill-opacity="0.07" stroke="#1f77b4" stroke-width="1.9"/>
<rect x="926.11" y="311.42" width="19.77" height="90.82" fill="#1f77b4" fill-opacity="0.07" stroke="#1f77b4" stroke-width="1.9"/>
<rect x="914.33" y="402.23" width="31.34" height="256.77" fill="#1f77b4" fill-opacity="0.07" stroke="#1f77b4" stroke-width="1.9"/>
<rect x="567.16" y="638.98" width="378.51" height="20.02" fill="#1f77b4" fill-opacity="0.07" stroke="#1f77b4" stroke-width="1.9"/>
<rect x="527.11" y="632.96" width="40.06" height="26.04" fill="#1f77b4" fill-opacity="0.07" stroke="#1f77b4" stroke-width="1.9"/>
<rect x="184.27" y="641.98" width="342.84" height="17.02" fill="#1f77b4" fill-opacity="0.07" stroke="#1f77b4" stroke-width="1.9"/>
<rect x="184.27" y="477.99" width="43.58" height="181.01" fill="#1f77b4" fill-opacity="0.07" stroke="#1f77b4" stroke-width="1.9"/>
<rect x="104.42" y="477.99" width="123.43" height="14.59" fill="#1f77b4" fill-opacity="0.07" stroke="#1f77b4" stroke-width="1.9"/>
<rect x="49.08" y="470.55" width="55.34" height="22.02" fill="#1f77b4" fill-opacity="0.07" stroke="#1f77b4" stroke-width="1.9"/>
<rect x="49.08" y="18.31" width="14.68" height="474.27" fill="#1f77b4" fill-opacity="0.07" stroke="#1f77b4" stroke-width="1.9"/>
<line x1="545.89" y1="406.74" x2="945.67" y2="406.74" stroke="#d62728" stroke-width="2.2" stroke-dasharray="5 3"/>
<rect x="545.89" y="402.23" width="7.77" height="230.73" fill="#1f77b4" fill-opacity="0.07" stroke="#1f77b4" stroke-width="1.9"/>
<rect x="545.89" y="285.80" width="7.77" height="116.43" fill="#1f77b4" fill-opacity="0.07" stroke="#1f77b4" stroke-width="1.9"/>
<rect x="467.34" y="285.80" width="86.32" height="9.01" fill="#1f77b4" fill-opacity="0.07" stroke="#1f77b4" stroke-width="1.9"/>
<rect x="111.28" y="285.80" width="224.76" height="9.01" fill="#1f77b4" fill-opacity="0.07" stroke="#1f77b4" stroke-width="1.9"/>
<rect x="49.08" y="221.38" width="62.20" height="73.43" fill="#1f77b4" fill-opacity="0.07" stroke="#1f77b4" stroke-width="1.9"/>
<rect x="184.11" y="447.08" width="43.23" height="30.91" fill="#1f77b4" fill-opacity="0.07" stroke="#d62728" stroke-width="2.2" stroke-dasharray="5 3"/>
<rect x="184.11" y="447.08" width="226.14" height="10.01" fill="#1f77b4" fill-opacity="0.07" stroke="#1f77b4" stroke-width="1.9"/>
<rect x="401.62" y="447.08" width="8.63" height="211.92" fill="#1f77b4" fill-opacity="0.07" stroke="#1f77b4" stroke-width="1.9"/>
<rect x="401.62" y="505.35" width="144.27" height="10.01" fill="#1f77b4" fill-opacity="0.07" stroke="#1f77b4" stroke-width="1.9"/>
<rect x="945.67" y="643.61" width="104.06" height="10.01" fill="#1f77b4" fill-opacity="0.07" stroke="#1f77b4" stroke-width="1.9"/>
<rect x="1049.73" y="304.41" width="6.04" height="349.22" fill="#1f77b4" fill-opacity="0.07" stroke="#1f77b4" stroke-width="1.9"/>
<rect x="949.73" y="304.41" width="106.04" height="7.01" fill="#1f77b4" fill-opacity="0.07" stroke="#1f77b4" stroke-width="1.9"/>
<rect x="330.85" y="225.69" width="5.18" height="69.12" fill="#1f77b4" fill-opacity="0.07" stroke="#1f77b4" stroke-width="1.9"/>
<rect x="326.33" y="18.31" width="9.71" height="126.96" fill="#1f77b4" fill-opacity="0.07" stroke="#1f77b4" stroke-width="1.9"/>
<rect x="352.45" y="574.22" width="31.99" height="66.24" fill="#1f77b4" fill-opacity="0.07" stroke="#1f77b4" stroke-width="1.9"/>
<rect x="294.58" y="607.40" width="43.48" height="34.59" fill="#1f77b4" fill-opacity="0.07" stroke="#1f77b4" stroke-width="1.9"/>
<rect x="294.58" y="607.40" width="43.48" height="34.59" fill="#1f77b4" fill-opacity="0.07" stroke="#1f77b4" stroke-width="1.9"/>
<rect x="227.85" y="493.59" width="61.33" height="148.40" fill="#1f77b4" fill-opacity="0.07" stroke="#1f77b4" stroke-width="1.9"/>
<rect x="246.37" y="622.97" width="27.63" height="19.02" fill="#1f77b4" fill-opacity="0.07" stroke="#1f77b4" stroke-width="1.9"/>
<rect x="63.76" y="59.59" width="43.38" height="60.06" fill="#1f77b4" fill-opacity="0.07" stroke="#1f77b4" stroke-width="1.9"/>
<rect x="107.14" y="59.59" width="43.38" height="60.06" fill="#1f77b4" fill-opacity="0.07" stroke="#d62728" stroke-width="2.2" stroke-dasharray="5 3"/>
<rect x="150.52" y="59.59" width="43.38" height="60.06" fill="#1f77b4" fill-opacity="0.07" stroke="#d62728" stroke-width="2.2" stroke-dasharray="5 3"/>
<rect x="193.90" y="59.59" width="132.84" height="60.06" fill="#1f77b4" fill-opacity="0.07" stroke="#1f77b4" stroke-width="1.9"/>
<rect x="111.28" y="225.55" width="219.46" height="60.06" fill="#1f77b4" fill-opacity="0.07" stroke="#1f77b4" stroke-width="1.9"/>
<rect x="109.62" y="225.55" width="45.91" height="60.06" fill="#1f77b4" fill-opacity="0.07" stroke="#d62728" stroke-width="2.2" stroke-dasharray="5 3"/>
<rect x="170.30" y="230.01" width="70.50" height="55.70" fill="#1f77b4" fill-opacity="0.07" stroke="#d62728" stroke-width="2.2" stroke-dasharray="5 3"/>
<rect x="111.28" y="255.67" width="219.34" height="30.03" fill="#1f77b4" fill-opacity="0.07" stroke="#1f77b4" stroke-width="1.9"/>
<rect x="926.11" y="315.87" width="19.77" height="80.63" fill="#17becf" fill-opacity="0.06" stroke="#17becf" stroke-width="1.5"/>
<rect x="926.11" y="315.87" width="19.77" height="80.63" fill="#17becf" fill-opacity="0.06" stroke="#17becf" stroke-width="1.5"/>
<rect x="926.11" y="315.87" width="19.77" height="80.63" fill="#17becf" fill-opacity="0.06" stroke="#17becf" stroke-width="1.5"/>
<rect x="109.30" y="477.99" width="71.41" height="14.59" fill="#17becf" fill-opacity="0.06" stroke="#17becf" stroke-width="1.5"/>
<rect x="109.30" y="477.99" width="71.41" height="14.59" fill="#17becf" fill-opacity="0.06" stroke="#17becf" stroke-width="1.5"/>
<rect x="109.30" y="477.99" width="71.41" height="14.59" fill="#17becf" fill-opacity="0.06" stroke="#17becf" stroke-width="1.5"/>
<rect x="545.89" y="417.29" width="7.77" height="76.87" fill="#17becf" fill-opacity="0.06" stroke="#17becf" stroke-width="1.5"/>
<rect x="545.89" y="417.29" width="7.77" height="76.87" fill="#17becf" fill-opacity="0.06" stroke="#17becf" stroke-width="1.5"/>
<rect x="545.89" y="417.29" width="7.77" height="76.87" fill="#17becf" fill-opacity="0.06" stroke="#17becf" stroke-width="1.5"/>
<rect x="545.89" y="318.58" width="7.77" height="76.87" fill="#17becf" fill-opacity="0.06" stroke="#17becf" stroke-width="1.5"/>
<rect x="545.89" y="318.58" width="7.77" height="76.87" fill="#17becf" fill-opacity="0.06" stroke="#17becf" stroke-width="1.5"/>
<rect x="545.89" y="318.58" width="7.77" height="76.87" fill="#17becf" fill-opacity="0.06" stroke="#17becf" stroke-width="1.5"/>
<rect x="336.56" y="447.08" width="60.77" height="10.01" fill="#17becf" fill-opacity="0.06" stroke="#17becf" stroke-width="1.5"/>
<rect x="336.56" y="447.08" width="60.77" height="10.01" fill="#17becf" fill-opacity="0.06" stroke="#17becf" stroke-width="1.5"/>
<rect x="336.56" y="447.08" width="60.77" height="10.01" fill="#17becf" fill-opacity="0.06" stroke="#17becf" stroke-width="1.5"/>
<rect x="451.44" y="505.35" width="52.97" height="10.01" fill="#17becf" fill-opacity="0.06" stroke="#17becf" stroke-width="1.5"/>
<rect x="451.44" y="505.35" width="52.97" height="10.01" fill="#17becf" fill-opacity="0.06" stroke="#17becf" stroke-width="1.5"/>
<rect x="451.44" y="505.35" width="52.97" height="10.01" fill="#17becf" fill-opacity="0.06" stroke="#17becf" stroke-width="1.5"/>
<rect x="196.63" y="18.31" width="129.29" height="41.04" fill="#007f7f" fill-opacity="0.06" stroke="#007f7f" stroke-width="1.4"/>
<rect x="196.63" y="18.31" width="129.29" height="41.04" fill="#007f7f" fill-opacity="0.06" stroke="#007f7f" stroke-width="1.4"/>
<rect x="336.86" y="18.31" width="298.90" height="41.04" fill="#007f7f" fill-opacity="0.06" stroke="#007f7f" stroke-width="1.4"/>
<rect x="336.86" y="18.31" width="298.90" height="41.04" fill="#007f7f" fill-opacity="0.06" stroke="#007f7f" stroke-width="1.4"/>
<rect x="914.33" y="152.90" width="35.40" height="149.92" fill="#007f7f" fill-opacity="0.06" stroke="#007f7f" stroke-width="1.4"/>
<rect x="914.33" y="152.90" width="35.40" height="149.92" fill="#007f7f" fill-opacity="0.06" stroke="#007f7f" stroke-width="1.4"/>
<rect x="914.33" y="413.40" width="31.34" height="224.65" fill="#007f7f" fill-opacity="0.06" stroke="#007f7f" stroke-width="1.4"/>
<rect x="914.33" y="413.40" width="31.34" height="224.65" fill="#007f7f" fill-opacity="0.06" stroke="#007f7f" stroke-width="1.4"/>
<rect x="298.21" y="610.45" width="36.22" height="21.82" fill="#ff7f0e" fill-opacity="0.08" stroke="#ff7f0e" stroke-width="1.3"/>
<rect x="313.30" y="619.92" width="6.04" height="7.01" fill="#ff7f0e" fill-opacity="0.08" stroke="#ff7f0e" stroke-width="1.3"/>
<rect x="314.59" y="621.42" width="3.45" height="4.00" fill="#ff7f0e" fill-opacity="0.08" stroke="#ff7f0e" stroke-width="1.3"/>
<rect x="313.31" y="625.09" width="5.18" height="14.01" fill="#ff7f0e" fill-opacity="0.08" stroke="#ff7f0e" stroke-width="1.3"/>
<rect x="261.13" y="635.38" width="9.67" height="6.11" fill="#ff7f0e" fill-opacity="0.08" stroke="#ff7f0e" stroke-width="1.3"/>
<rect x="249.13" y="635.38" width="9.67" height="6.11" fill="#ff7f0e" fill-opacity="0.08" stroke="#ff7f0e" stroke-width="1.3"/>
<rect x="246.28" y="635.38" width="2.94" height="6.11" fill="#ff7f0e" fill-opacity="0.08" stroke="#ff7f0e" stroke-width="1.3"/>
<rect x="270.80" y="635.38" width="2.76" height="6.11" fill="#ff7f0e" fill-opacity="0.08" stroke="#ff7f0e" stroke-width="1.3"/>
<rect x="261.13" y="633.48" width="17.18" height="10.11" fill="#ff7f0e" fill-opacity="0.08" stroke="#ff7f0e" stroke-width="1.3"/>
<rect x="263.46" y="626.67" width="10.45" height="17.22" fill="#ff7f0e" fill-opacity="0.08" stroke="#ff7f0e" stroke-width="1.3"/>
<rect x="261.13" y="633.98" width="15.20" height="8.01" fill="#ff7f0e" fill-opacity="0.08" stroke="#ff7f0e" stroke-width="1.3"/>
<rect x="269.51" y="637.88" width="4.49" height="4.10" fill="#ff7f0e" fill-opacity="0.08" stroke="#ff7f0e" stroke-width="1.3"/>
<rect x="249.22" y="637.88" width="24.78" height="4.10" fill="#ff7f0e" fill-opacity="0.08" stroke="#ff7f0e" stroke-width="1.3"/>
<rect x="111.15" y="227.55" width="42.66" height="56.06" fill="#ff7f0e" fill-opacity="0.08" stroke="#ff7f0e" stroke-width="1.3"/>
<rect x="136.38" y="261.59" width="13.82" height="16.02" fill="#ff7f0e" fill-opacity="0.08" stroke="#ff7f0e" stroke-width="1.3"/>
<rect x="114.95" y="261.59" width="13.82" height="16.02" fill="#ff7f0e" fill-opacity="0.08" stroke="#ff7f0e" stroke-width="1.3"/>
<rect x="136.38" y="233.56" width="13.82" height="16.02" fill="#ff7f0e" fill-opacity="0.08" stroke="#ff7f0e" stroke-width="1.3"/>
<rect x="114.95" y="233.56" width="13.82" height="16.02" fill="#ff7f0e" fill-opacity="0.08" stroke="#ff7f0e" stroke-width="1.3"/>
<rect x="207.06" y="234.74" width="28.70" height="41.05" fill="#ff7f0e" fill-opacity="0.08" stroke="#ff7f0e" stroke-width="1.3"/>
<rect x="175.34" y="234.64" width="28.69" height="41.05" fill="#ff7f0e" fill-opacity="0.08" stroke="#ff7f0e" stroke-width="1.3"/>
<rect x="217.93" y="252.03" width="6.04" height="7.01" fill="#ff7f0e" fill-opacity="0.08" stroke="#ff7f0e" stroke-width="1.3"/>
<rect x="187.22" y="252.03" width="6.04" height="7.01" fill="#ff7f0e" fill-opacity="0.08" stroke="#ff7f0e" stroke-width="1.3"/>
<rect x="219.23" y="253.53" width="3.45" height="4.00" fill="#ff7f0e" fill-opacity="0.08" stroke="#ff7f0e" stroke-width="1.3"/>
<rect x="188.51" y="253.53" width="3.45" height="4.00" fill="#ff7f0e" fill-opacity="0.08" stroke="#ff7f0e" stroke-width="1.3"/>
<rect x="203.39" y="267.15" width="5.18" height="14.01" fill="#ff7f0e" fill-opacity="0.08" stroke="#d62728" stroke-width="2.2" stroke-dasharray="5 3"/>
<rect x="997.76" y="467.56" width="37.99" height="10.01" fill="#9467bd" fill-opacity="0.08" stroke="#d62728" stroke-width="2.2" stroke-dasharray="5 3"/>
<rect x="966.58" y="507.77" width="66.49" height="10.01" fill="#9467bd" fill-opacity="0.08" stroke="#9467bd" stroke-width="1.3"/>
<rect x="189.11" y="175.06" width="8.63" height="10.01" fill="#9467bd" fill-opacity="0.08" stroke="#d62728" stroke-width="2.2" stroke-dasharray="5 3"/>
<rect x="114.63" y="214.56" width="56.99" height="10.01" fill="#9467bd" fill-opacity="0.08" stroke="#9467bd" stroke-width="1.3"/>
<rect x="436.00" y="165.23" width="42.74" height="10.01" fill="#9467bd" fill-opacity="0.08" stroke="#d62728" stroke-width="2.2" stroke-dasharray="5 3"/>
<rect x="446.49" y="204.74" width="52.24" height="10.01" fill="#9467bd" fill-opacity="0.08" stroke="#9467bd" stroke-width="1.3"/>
<rect x="275.54" y="362.43" width="9.50" height="10.01" fill="#9467bd" fill-opacity="0.08" stroke="#d62728" stroke-width="2.2" stroke-dasharray="5 3"/>
<rect x="209.24" y="401.94" width="56.99" height="10.01" fill="#9467bd" fill-opacity="0.08" stroke="#9467bd" stroke-width="1.3"/>
<rect x="720.24" y="231.63" width="9.50" height="10.01" fill="#9467bd" fill-opacity="0.08" stroke="#d62728" stroke-width="2.2" stroke-dasharray="5 3"/>
<rect x="648.66" y="271.14" width="61.74" height="10.01" fill="#9467bd" fill-opacity="0.08" stroke="#9467bd" stroke-width="1.3"/>
<rect x="733.47" y="527.03" width="8.63" height="10.01" fill="#9467bd" fill-opacity="0.08" stroke="#d62728" stroke-width="2.2" stroke-dasharray="5 3"/>
<rect x="659.70" y="567.07" width="56.99" height="10.01" fill="#9467bd" fill-opacity="0.08" stroke="#9467bd" stroke-width="1.3"/>
<rect x="295.25" y="538.67" width="23.75" height="10.01" fill="#9467bd" fill-opacity="0.08" stroke="#d62728" stroke-width="2.2" stroke-dasharray="5 3"/>
<rect x="269.64" y="578.96" width="52.24" height="10.01" fill="#9467bd" fill-opacity="0.08" stroke="#9467bd" stroke-width="1.3"/>
<rect x="455.34" y="579.71" width="9.50" height="10.01" fill="#9467bd" fill-opacity="0.08" stroke="#d62728" stroke-width="2.2" stroke-dasharray="5 3"/>
<rect x="400.37" y="619.92" width="52.24" height="10.01" fill="#9467bd" fill-opacity="0.08" stroke="#9467bd" stroke-width="1.3"/>
<rect x="993.39" y="311.41" width="8.63" height="5.01" fill="#8c564b" fill-opacity="0.06" stroke="#d62728" stroke-width="2.2" stroke-dasharray="5 3"/>
<rect x="1045.42" y="472.51" width="4.32" height="10.01" fill="#8c564b" fill-opacity="0.06" stroke="#d62728" stroke-width="2.2" stroke-dasharray="5 3"/>
<rect x="993.39" y="638.61" width="8.63" height="5.01" fill="#8c564b" fill-opacity="0.06" stroke="#d62728" stroke-width="2.2" stroke-dasharray="5 3"/>
<rect x="945.77" y="472.51" width="4.32" height="10.01" fill="#8c564b" fill-opacity="0.06" stroke="#d62728" stroke-width="2.2" stroke-dasharray="5 3"/>
<rect x="195.58" y="59.35" width="8.63" height="5.01" fill="#8c564b" fill-opacity="0.06" stroke="#d62728" stroke-width="2.2" stroke-dasharray="5 3"/>
<rect x="331.72" y="167.57" width="4.32" height="10.01" fill="#8c564b" fill-opacity="0.06" stroke="#d62728" stroke-width="2.2" stroke-dasharray="5 3"/>
<rect x="195.58" y="280.79" width="8.63" height="5.01" fill="#8c564b" fill-opacity="0.06" stroke="#d62728" stroke-width="2.2" stroke-dasharray="5 3"/>
<rect x="63.76" y="167.57" width="4.32" height="10.01" fill="#8c564b" fill-opacity="0.06" stroke="#d62728" stroke-width="2.2" stroke-dasharray="5 3"/>
<rect x="440.53" y="59.35" width="8.63" height="5.01" fill="#8c564b" fill-opacity="0.06" stroke="#d62728" stroke-width="2.2" stroke-dasharray="5 3"/>
<rect x="549.34" y="172.08" width="4.32" height="10.01" fill="#8c564b" fill-opacity="0.06" stroke="#d62728" stroke-width="2.2" stroke-dasharray="5 3"/>
<rect x="440.53" y="289.80" width="8.63" height="5.01" fill="#8c564b" fill-opacity="0.06" stroke="#d62728" stroke-width="2.2" stroke-dasharray="5 3"/>
<rect x="336.03" y="172.08" width="4.32" height="10.01" fill="#8c564b" fill-opacity="0.06" stroke="#d62728" stroke-width="2.2" stroke-dasharray="5 3"/>
<rect x="300.51" y="294.81" width="8.63" height="5.01" fill="#8c564b" fill-opacity="0.06" stroke="#d62728" stroke-width="2.2" stroke-dasharray="5 3"/>
<rect x="541.57" y="395.07" width="4.32" height="10.01" fill="#8c564b" fill-opacity="0.06" stroke="#d62728" stroke-width="2.2" stroke-dasharray="5 3"/>
<rect x="300.51" y="442.08" width="8.63" height="5.01" fill="#8c564b" fill-opacity="0.06" stroke="#d62728" stroke-width="2.2" stroke-dasharray="5 3"/>
<rect x="63.76" y="395.07" width="4.32" height="10.01" fill="#8c564b" fill-opacity="0.06" stroke="#d62728" stroke-width="2.2" stroke-dasharray="5 3"/>
<rect x="735.57" y="59.35" width="8.63" height="5.01" fill="#8c564b" fill-opacity="0.06" stroke="#d62728" stroke-width="2.2" stroke-dasharray="5 3"/>
<rect x="910.01" y="225.79" width="4.32" height="10.01" fill="#8c564b" fill-opacity="0.06" stroke="#d62728" stroke-width="2.2" stroke-dasharray="5 3"/>
<rect x="735.57" y="397.23" width="8.63" height="5.01" fill="#8c564b" fill-opacity="0.06" stroke="#d62728" stroke-width="2.2" stroke-dasharray="5 3"/>
<rect x="553.66" y="225.79" width="4.32" height="10.01" fill="#8c564b" fill-opacity="0.06" stroke="#d62728" stroke-width="2.2" stroke-dasharray="5 3"/>
<rect x="729.68" y="411.24" width="8.63" height="5.01" fill="#8c564b" fill-opacity="0.06" stroke="#d62728" stroke-width="2.2" stroke-dasharray="5 3"/>
<rect x="910.01" y="520.11" width="4.32" height="10.01" fill="#8c564b" fill-opacity="0.06" stroke="#d62728" stroke-width="2.2" stroke-dasharray="5 3"/>
<rect x="729.68" y="633.98" width="8.63" height="5.01" fill="#8c564b" fill-opacity="0.06" stroke="#d62728" stroke-width="2.2" stroke-dasharray="5 3"/>
<rect x="553.66" y="520.11" width="4.32" height="10.01" fill="#8c564b" fill-opacity="0.06" stroke="#d62728" stroke-width="2.2" stroke-dasharray="5 3"/>
<rect x="310.16" y="457.09" width="8.63" height="5.01" fill="#8c564b" fill-opacity="0.06" stroke="#d62728" stroke-width="2.2" stroke-dasharray="5 3"/>
<rect x="397.30" y="544.53" width="4.32" height="10.01" fill="#8c564b" fill-opacity="0.06" stroke="#d62728" stroke-width="2.2" stroke-dasharray="5 3"/>
<rect x="310.16" y="636.98" width="8.63" height="5.01" fill="#8c564b" fill-opacity="0.06" stroke="#d62728" stroke-width="2.2" stroke-dasharray="5 3"/>
<rect x="227.85" y="544.53" width="4.32" height="10.01" fill="#8c564b" fill-opacity="0.06" stroke="#d62728" stroke-width="2.2" stroke-dasharray="5 3"/>
<rect x="473.75" y="515.36" width="8.63" height="5.01" fill="#8c564b" fill-opacity="0.06" stroke="#d62728" stroke-width="2.2" stroke-dasharray="5 3"/>
<rect x="541.57" y="573.67" width="4.32" height="10.01" fill="#8c564b" fill-opacity="0.06" stroke="#d62728" stroke-width="2.2" stroke-dasharray="5 3"/>
<rect x="473.75" y="636.98" width="8.63" height="5.01" fill="#8c564b" fill-opacity="0.06" stroke="#d62728" stroke-width="2.2" stroke-dasharray="5 3"/>
<rect x="410.25" y="573.67" width="4.32" height="10.01" fill="#8c564b" fill-opacity="0.06" stroke="#d62728" stroke-width="2.2" stroke-dasharray="5 3"/>
<rect x="311.59" y="605.36" width="9.15" height="15.44" fill="#8c564b" fill-opacity="0.06" stroke="#d62728" stroke-width="2.2" stroke-dasharray="5 3"/>
<rect x="311.59" y="605.36" width="9.15" height="15.44" fill="#8c564b" fill-opacity="0.06" stroke="#d62728" stroke-width="2.2" stroke-dasharray="5 3"/>
<rect x="80.66" y="103.72" width="9.16" height="15.94" fill="#8c564b" fill-opacity="0.06" stroke="#d62728" stroke-width="2.2" stroke-dasharray="5 3"/>
<rect x="124.04" y="103.72" width="9.16" height="15.94" fill="#8c564b" fill-opacity="0.06" stroke="#d62728" stroke-width="2.2" stroke-dasharray="5 3"/>
<rect x="167.42" y="103.72" width="9.16" height="15.94" fill="#8c564b" fill-opacity="0.06" stroke="#d62728" stroke-width="2.2" stroke-dasharray="5 3"/>
<rect x="258.89" y="104.22" width="9.15" height="15.44" fill="#8c564b" fill-opacity="0.06" stroke="#d62728" stroke-width="2.2" stroke-dasharray="5 3"/>
<rect x="210.38" y="225.55" width="9.16" height="15.44" fill="#8c564b" fill-opacity="0.06" stroke="#d62728" stroke-width="2.2" stroke-dasharray="5 3"/>
<rect x="127.76" y="225.55" width="9.15" height="15.44" fill="#8c564b" fill-opacity="0.06" stroke="#d62728" stroke-width="2.2" stroke-dasharray="5 3"/>
<rect x="200.75" y="229.62" width="9.15" height="15.94" fill="#8c564b" fill-opacity="0.06" stroke="#d62728" stroke-width="2.2" stroke-dasharray="5 3"/>
<rect x="210.33" y="255.67" width="9.16" height="15.44" fill="#8c564b" fill-opacity="0.06" stroke="#d62728" stroke-width="2.2" stroke-dasharray="5 3"/>
</g>
<g class="labels">
<text class="label" x="555.66" y="57.35" fill="#2ca02c">living_room:s32</text>
<text class="label" x="65.76" y="292.81" fill="#2ca02c">corridor:s24</text>
<text class="label" x="555.66" y="409.24" fill="#2ca02c">room:s40</text>
<text class="label" x="65.76" y="57.35" fill="#2ca02c">kitchen:s8</text>
<text class="label" x="338.03" y="57.35" fill="#2ca02c">room:s16</text>
<text class="label" x="947.67" y="309.42" fill="#2ca02c">room:s0</text>
<text class="label" x="229.34" y="455.09" fill="#2ca02c">room:s48</text>
<text class="label" x="412.25" y="513.36" fill="#2ca02c">closet:s56</text>
<text class="label" x="353.97" y="572.69" fill="#2ca02c">toilet:s124</text>
<text class="label" x="354.85" y="621.22" fill="#2ca02c">toilet:s123</text>
<text class="label" x="113.15" y="225.55" fill="#ff7f0e">appliance:s157</text>
<text class="label" x="209.06" y="232.74" fill="#ff7f0e">sink:s164</text>
<text class="label" x="300.21" y="608.45" fill="#ff7f0e">sink:s129</text>
<text class="label" x="138.38" y="259.59" fill="#ff7f0e">appliance:s158</text>
<text class="label" x="265.46" y="624.67" fill="#ff7f0e">shower:s142</text>
<text class="label" x="205.39" y="265.15" fill="#ff7f0e">equipment:s170</text>
<text class="label" x="51.08" y="16.31" fill="#1f77b4">hard_wall:b0</text>
<text class="label" x="916.33" y="16.31" fill="#1f77b4">hard_wall:b5</text>
<text class="label" x="229.85" y="491.59" fill="#1f77b4">hard_wall:b61</text>
<text class="label" x="916.33" y="400.23" fill="#1f77b4">hard_wall:b13</text>
<text class="label" x="195.90" y="57.59" fill="#1f77b4">hard_wall:b66</text>
<text class="label" x="569.16" y="636.98" fill="#1f77b4">hard_wall:b16</text>
<text class="label" x="186.27" y="639.98" fill="#1f77b4">hard_wall:b18</text>
<text class="label" x="51.08" y="219.38" fill="#1f77b4">hard_wall:b40</text>
<text class="label" x="1051.73" y="302.41" fill="#1f77b4">partition_wall:b54</text>
<text class="label" x="403.62" y="445.08" fill="#1f77b4">hard_wall:b47</text>
<text class="label" x="106.42" y="475.99" fill="#1f77b4">hard_wall:b20</text>
<text class="label" x="328.33" y="16.31" fill="#1f77b4">hard_wall:b57</text>
<text class="label" x="51.08" y="468.55" fill="#1f77b4">hard_wall:b25</text>
<text class="label" x="947.67" y="641.61" fill="#1f77b4">hard_wall:b53</text>
<text class="label" x="547.89" y="283.80" fill="#1f77b4">hard_wall:b33</text>
<text class="label" x="469.34" y="283.80" fill="#1f77b4">hard_wall:b38</text>
<text class="label" x="332.85" y="223.69" fill="#1f77b4">hard_wall:b56</text>
<text class="label" x="338.56" y="445.08" fill="#17becf">door:b43</text>
<text class="label" x="547.89" y="316.58" fill="#17becf">door:b34</text>
<text class="label" x="916.33" y="150.90" fill="#007f7f">window:b6</text>
</g>
</g>
<g transform="translate(0,701)">
<text class="title" x="0" y="0">cubicasa5k_00_11563</text>
<rect x="0" y="14" width="14" height="10" fill="#1f77b4" fill-opacity="0.35" stroke="#1f77b4"/>
<text class="legend" x="18" y="24">Wall boundary</text>
<rect x="185" y="14" width="14" height="10" fill="#17becf" fill-opacity="0.35" stroke="#17becf"/>
<text class="legend" x="203" y="24">Door / opening</text>
<rect x="370" y="14" width="14" height="10" fill="#007f7f" fill-opacity="0.35" stroke="#007f7f"/>
<text class="legend" x="388" y="24">Window / glass</text>
<rect x="555" y="14" width="14" height="10" fill="#2ca02c" fill-opacity="0.35" stroke="#2ca02c"/>
<text class="legend" x="573" y="24">Space: rooms / regions</text>
<rect x="740" y="14" width="14" height="10" fill="#ff7f0e" fill-opacity="0.35" stroke="#ff7f0e"/>
<text class="legend" x="758" y="24">Symbol: fixtures / equipment</text>
<rect x="925" y="14" width="14" height="10" fill="#9467bd" fill-opacity="0.35" stroke="#9467bd"/>
<text class="legend" x="943" y="24">Visible text: room / dimension labels</text>
<rect x="1110" y="14" width="14" height="10" fill="#8c564b" fill-opacity="0.35" stroke="#8c564b"/>
<text class="legend" x="1128" y="24">Dimension aids: lines / leaders</text>
<rect x="1295" y="14" width="14" height="10" fill="#7f7f7f" fill-opacity="0.35" stroke="#7f7f7f"/>
<text class="legend" x="1313" y="24">Sheet: title block / layout</text>
<rect x="1480" y="14" width="14" height="10" fill="#d62728" fill-opacity="0.35" stroke="#d62728"/>
<text class="legend" x="1498" y="24">Warning / needs review</text>
</g>
</svg>
